<svg id="SvgjsSvg1000" xmlns="http://www.w3.org/2000/svg" version="1.1" xmlns:xlink="http://www.w3.org/1999/xlink" xmlns:svgjs="http://svgjs.com/svgjs" width="19" height="24" viewBox="0 0 19 24"><title>Shape 1</title><desc>Created with Avocode.</desc><defs id="SvgjsDefs1001"></defs><path id="SvgjsPath1007" d="M1213.19 3091.36C1208.5 3091.52 1204.6000000000001 3095.1800000000003 1204.15 3099.85C1204.0500000000002 3100.79 1204.1100000000001 3101.69 1204.27 3102.56C1204.27 3102.56 1204.29 3102.66 1204.34 3102.85C1204.48 3103.5 1204.6999999999998 3104.13 1204.97 3104.72C1205.91 3106.9599999999996 1208.1000000000001 3110.7 1213 3114.77C1213.3 3115.03 1213.74 3115.03 1214.05 3114.77C1218.95 3110.71 1221.1299999999999 3106.96 1222.08 3104.72C1222.36 3104.1299999999997 1222.57 3103.5 1222.72 3102.85C1222.76 3102.66 1222.78 3102.5499999999997 1222.78 3102.5499999999997C1222.8899999999999 3101.97 1222.95 3101.3799999999997 1222.95 3100.7699999999995C1222.95 3095.4499999999994 1218.55 3091.1699999999996 1213.19 3091.3599999999997ZM1213.52 3105.45C1211 3105.45 1208.95 3103.41 1208.95 3100.8799999999997C1208.95 3098.3499999999995 1211 3096.2999999999997 1213.52 3096.2999999999997C1216.05 3096.2999999999997 1218.1 3098.35 1218.1 3100.8799999999997C1218.1 3103.41 1216.05 3105.45 1213.52 3105.45Z " fill="#ebad71" fill-opacity="1" transform="matrix(1,0,0,1,-1204,-3091)"></path></svg>