<?xml version="1.0" encoding="utf-8"?>
<!-- Generator: Adobe Illustrator 16.0.0, SVG Export Plug-In . SVG Version: 6.00 Build 0)  -->
<!DOCTYPE svg PUBLIC "-//W3C//DTD SVG 1.1//EN" "http://www.w3.org/Graphics/SVG/1.1/DTD/svg11.dtd">
<svg version="1.1" id="Слой_1" xmlns="http://www.w3.org/2000/svg" xmlns:xlink="http://www.w3.org/1999/xlink" x="0px" y="0px"
	 width="255.117px" height="93.543px" viewBox="0 0 255.117 93.543" enable-background="new 0 0 255.117 93.543"
	 xml:space="preserve">
<g>
	<path fill="#5C2319" d="M100.562,13.311c-0.893-1.255-1.336-2.642-1.336-4.204c0-0.945,0.167-1.862,0.528-2.694
		c0.333-0.837,0.862-1.59,1.559-2.284c1.306-1.307,2.864-1.977,4.702-2.06h5.228l-0.196,0.53l-1.307,3.057l-0.083,0.252h-3.338
		c-0.889,0-1.64,0.305-2.309,0.919c-0.333,0.331-0.556,0.665-0.725,1.055c-0.135,0.362-0.22,0.777-0.22,1.224
		c0,0.445,0.085,0.889,0.22,1.226c0.2,0.417,0.448,0.751,0.725,1.087c0.335,0.303,0.697,0.554,1.087,0.721
		c0.358,0.167,0.776,0.25,1.222,0.25h4.924l-0.196,0.526l-1.307,3.063l-0.083,0.25h-3.338c-1,0-2.032,0.081-2.976,0.279
		c-0.974,0.195-1.892,0.5-2.81,0.889c-0.889,0.39-1.723,0.833-2.56,1.393c-0.777,0.526-1.473,1.138-2.142,1.78
		c-0.694,0.667-1.305,1.417-1.808,2.2c-0.529,0.776-0.973,1.612-1.362,2.559c-0.39,0.885-0.695,1.808-0.89,2.78
		c-0.195,0.975-0.307,1.949-0.307,3.006c0,0.999,0.112,2.004,0.307,2.972c0.195,0.947,0.5,1.894,0.89,2.784
		c0.39,0.89,0.833,1.727,1.362,2.534c0.554,0.776,1.142,1.473,1.808,2.17c0.696,0.667,1.419,1.277,2.198,1.806
		c0.781,0.503,1.64,1.003,2.533,1.392c0.917,0.391,1.836,0.666,2.809,0.862c0.945,0.197,1.976,0.306,2.977,0.306
		c1.028,0,2.058-0.109,2.975-0.306c0.975-0.196,1.893-0.471,2.782-0.862c0.918-0.388,1.752-0.888,2.533-1.392
		c0.777-0.529,1.528-1.139,2.198-1.806c0.665-0.697,1.251-1.394,1.808-2.17c0.528-0.807,0.973-1.67,1.362-2.559
		c0.39-0.921,0.696-1.837,0.889-2.783c0.196-0.973,0.279-1.949,0.279-2.947c0-2.031-0.362-3.978-1.083-5.707
		c-0.696-1.778-1.782-3.363-3.228-4.866l-0.667-0.667h10.321l-0.224,0.554l-1.309,3.064l-0.082,0.249h-1.391
		c0.475,1.085,0.808,2.2,1.087,3.336c0.276,1.337,0.414,2.67,0.414,4.061c0,1.254-0.11,2.534-0.361,3.731
		c-0.222,1.195-0.612,2.363-1.113,3.503c-0.499,1.139-1.055,2.2-1.724,3.172c-0.667,1-1.447,1.89-2.282,2.725
		c-0.807,0.861-1.752,1.584-2.725,2.284c-1.002,0.667-2.059,1.25-3.202,1.749c-1.139,0.475-2.308,0.835-3.503,1.112
		c-1.224,0.226-2.475,0.365-3.784,0.365c-1.279,0-2.532-0.14-3.728-0.365c-1.251-0.246-2.419-0.608-3.561-1.112
		c-1.139-0.472-2.168-1.056-3.169-1.724c-1.003-0.641-1.893-1.417-2.729-2.279c-0.834-0.836-1.586-1.755-2.281-2.755
		c-0.667-0.972-1.224-2.033-1.752-3.172c-0.973-2.279-1.476-4.673-1.476-7.235c0-1.057,0.111-2.056,0.251-3.058
		c0.194-1.029,0.417-2.003,0.751-2.952v-0.022c0.334-0.922,0.723-1.866,1.168-2.729c0.475-0.89,1.003-1.697,1.586-2.53
		c0.614-0.781,1.281-1.531,1.949-2.197c0.723-0.694,1.5-1.34,2.336-1.894c0.862-0.584,1.725-1.083,2.617-1.501
		C99.002,13.892,99.781,13.586,100.562,13.311"/>
	<path fill="none" stroke="#5C2319" stroke-width="0.25" stroke-miterlimit="10" d="M100.562,13.311
		c-0.893-1.255-1.336-2.642-1.336-4.204c0-0.945,0.167-1.862,0.528-2.694c0.333-0.837,0.862-1.59,1.559-2.284
		c1.306-1.307,2.864-1.977,4.702-2.06h5.228l-0.196,0.53l-1.307,3.057l-0.083,0.252h-3.338c-0.889,0-1.64,0.305-2.309,0.919
		c-0.333,0.331-0.556,0.665-0.725,1.055c-0.135,0.362-0.22,0.777-0.22,1.224c0,0.445,0.085,0.889,0.22,1.226
		c0.2,0.417,0.448,0.751,0.725,1.087c0.335,0.303,0.697,0.554,1.087,0.721c0.358,0.167,0.776,0.25,1.222,0.25h4.924l-0.196,0.526
		l-1.307,3.063l-0.083,0.25h-3.338c-1,0-2.032,0.081-2.976,0.279c-0.974,0.195-1.892,0.5-2.81,0.889
		c-0.889,0.39-1.723,0.833-2.56,1.393c-0.777,0.526-1.473,1.138-2.142,1.78c-0.694,0.667-1.305,1.417-1.808,2.2
		c-0.529,0.776-0.973,1.612-1.362,2.559c-0.39,0.885-0.695,1.808-0.89,2.78c-0.195,0.975-0.307,1.949-0.307,3.006
		c0,0.999,0.112,2.004,0.307,2.972c0.195,0.947,0.5,1.894,0.89,2.784c0.39,0.89,0.833,1.727,1.362,2.534
		c0.554,0.776,1.142,1.473,1.808,2.17c0.696,0.667,1.419,1.277,2.198,1.806c0.781,0.503,1.64,1.003,2.533,1.392
		c0.917,0.391,1.836,0.666,2.809,0.862c0.945,0.197,1.976,0.306,2.977,0.306c1.028,0,2.058-0.109,2.975-0.306
		c0.975-0.196,1.893-0.471,2.782-0.862c0.918-0.388,1.752-0.888,2.533-1.392c0.777-0.529,1.528-1.139,2.198-1.806
		c0.665-0.697,1.251-1.394,1.808-2.17c0.528-0.807,0.973-1.67,1.362-2.559c0.39-0.921,0.696-1.837,0.889-2.783
		c0.196-0.973,0.279-1.949,0.279-2.947c0-2.031-0.362-3.978-1.083-5.707c-0.696-1.778-1.782-3.363-3.228-4.866l-0.667-0.667h10.321
		l-0.224,0.554l-1.309,3.064l-0.082,0.249h-1.391c0.475,1.085,0.808,2.2,1.087,3.336c0.276,1.337,0.414,2.67,0.414,4.061
		c0,1.254-0.11,2.534-0.361,3.731c-0.222,1.195-0.612,2.363-1.113,3.503c-0.499,1.139-1.055,2.2-1.724,3.172
		c-0.667,1-1.447,1.89-2.282,2.725c-0.807,0.861-1.752,1.584-2.725,2.284c-1.002,0.667-2.059,1.25-3.202,1.749
		c-1.139,0.475-2.308,0.835-3.503,1.112c-1.224,0.226-2.475,0.365-3.784,0.365c-1.279,0-2.532-0.14-3.728-0.365
		c-1.251-0.246-2.419-0.608-3.561-1.112c-1.139-0.472-2.168-1.056-3.169-1.724c-1.003-0.641-1.893-1.417-2.729-2.279
		c-0.834-0.836-1.586-1.755-2.281-2.755c-0.667-0.972-1.224-2.033-1.752-3.172c-0.973-2.279-1.476-4.673-1.476-7.235
		c0-1.057,0.111-2.056,0.251-3.058c0.194-1.029,0.417-2.003,0.751-2.952v-0.022c0.334-0.922,0.723-1.866,1.168-2.729
		c0.475-0.89,1.003-1.697,1.586-2.53c0.614-0.781,1.281-1.531,1.949-2.197c0.723-0.694,1.5-1.34,2.336-1.894
		c0.862-0.584,1.725-1.083,2.617-1.501C99.002,13.892,99.781,13.586,100.562,13.311z"/>
	<path fill="#E9AC70" d="M4.698,37.676c0,1.559,0.556,2.867,1.642,3.952c1.085,1.083,2.392,1.614,3.92,1.614
		c1.505,0,2.812-0.531,3.897-1.614c1.083-1.085,1.641-2.394,1.641-3.952V19.765c0-0.364,0.084-0.642,0.36-0.865
		c0.223-0.194,0.501-0.331,0.809-0.331c0.36,0,0.637,0.137,0.806,0.331c0.25,0.224,0.361,0.501,0.361,0.865v17.911
		c0,1.559,0.557,2.867,1.643,3.952c1.085,1.083,2.364,1.614,3.893,1.614c1.531,0,2.865-0.531,3.951-1.614
		c1.085-1.085,1.614-2.394,1.614-3.952V19.765c0-0.364,0.083-0.642,0.333-0.865c0.224-0.194,0.501-0.331,0.807-0.331h0.054
		c0.307,0,0.586,0.137,0.808,0.331c0.223,0.224,0.306,0.501,0.306,0.865v17.911c0,2.228-0.751,4.091-2.308,5.622
		c-1.53,1.53-3.394,2.251-5.564,2.251c-2.586,0-4.84-1.194-6.703-3.643c-1.866,2.448-4.119,3.643-6.707,3.643
		c-2.198,0-4.061-0.721-5.563-2.251c-1.53-1.531-2.309-3.395-2.309-5.622V19.765c0-0.364,0.083-0.642,0.307-0.865
		c0.25-0.194,0.499-0.331,0.833-0.331h0.027c0.335,0,0.612,0.137,0.836,0.331c0.222,0.224,0.305,0.501,0.305,0.865V37.676z"/>
	<path fill="none" stroke="#E9AC70" stroke-width="0.25" stroke-miterlimit="10" d="M4.698,37.676c0,1.559,0.556,2.867,1.642,3.952
		c1.085,1.083,2.392,1.614,3.92,1.614c1.505,0,2.812-0.531,3.897-1.614c1.083-1.085,1.641-2.394,1.641-3.952V19.765
		c0-0.364,0.084-0.642,0.36-0.865c0.223-0.194,0.501-0.331,0.809-0.331c0.36,0,0.637,0.137,0.806,0.331
		c0.25,0.224,0.361,0.501,0.361,0.865v17.911c0,1.559,0.557,2.867,1.643,3.952c1.085,1.083,2.364,1.614,3.893,1.614
		c1.531,0,2.865-0.531,3.951-1.614c1.085-1.085,1.614-2.394,1.614-3.952V19.765c0-0.364,0.083-0.642,0.333-0.865
		c0.224-0.194,0.501-0.331,0.807-0.331h0.054c0.307,0,0.586,0.137,0.808,0.331c0.223,0.224,0.306,0.501,0.306,0.865v17.911
		c0,2.228-0.751,4.091-2.308,5.622c-1.53,1.53-3.394,2.251-5.564,2.251c-2.586,0-4.84-1.194-6.703-3.643
		c-1.866,2.448-4.119,3.643-6.707,3.643c-2.198,0-4.061-0.721-5.563-2.251c-1.53-1.531-2.309-3.395-2.309-5.622V19.765
		c0-0.364,0.083-0.642,0.307-0.865c0.25-0.194,0.499-0.331,0.833-0.331h0.027c0.335,0,0.612,0.137,0.836,0.331
		c0.222,0.224,0.305,0.501,0.305,0.865V37.676z"/>
	<path fill="#E9AC70" d="M41.141,18.568c0.332,0,0.582,0.137,0.833,0.331c0.223,0.224,0.307,0.501,0.307,0.865v19.194
		c0,0.305-0.084,0.583-0.307,0.807c-0.251,0.22-0.501,0.334-0.833,0.334h-0.028c-0.333,0-0.614-0.114-0.835-0.334
		c-0.222-0.225-0.361-0.502-0.361-0.807V19.764c0-0.364,0.139-0.642,0.361-0.865c0.222-0.194,0.503-0.331,0.835-0.331H41.141z"/>
	<path fill="none" stroke="#E9AC70" stroke-width="0.25" stroke-miterlimit="10" d="M41.141,18.568c0.332,0,0.582,0.137,0.833,0.331
		c0.223,0.224,0.307,0.501,0.307,0.865v19.194c0,0.305-0.084,0.583-0.307,0.807c-0.251,0.22-0.501,0.334-0.833,0.334h-0.028
		c-0.333,0-0.614-0.114-0.835-0.334c-0.222-0.225-0.361-0.502-0.361-0.807V19.764c0-0.364,0.139-0.642,0.361-0.865
		c0.222-0.194,0.503-0.331,0.835-0.331H41.141z"/>
	<path fill="#E9AC70" d="M69.571,44.438c0,0.305-0.083,0.583-0.305,0.806c-0.224,0.222-0.502,0.305-0.807,0.305h-0.057
		c-0.306,0-0.584-0.083-0.809-0.305c-0.222-0.224-0.333-0.501-0.333-0.806V27.136c0-1.673-0.612-3.173-1.808-4.396
		c-1.223-1.224-2.699-1.811-4.423-1.811c-1.726,0-3.171,0.587-4.395,1.811s-1.81,2.724-1.81,4.396v17.302
		c0,0.305-0.138,0.583-0.362,0.806c-0.22,0.222-0.47,0.305-0.779,0.305h-0.082c-0.335,0-0.556-0.083-0.778-0.305
		c-0.226-0.224-0.365-0.501-0.365-0.806V27.136c0-2.365,0.864-4.396,2.531-6.066c1.699-1.641,3.671-2.502,6.038-2.502
		c2.335,0,4.395,0.861,6.065,2.502c1.668,1.669,2.475,3.701,2.475,6.066V44.438z"/>
	<path fill="none" stroke="#E9AC70" stroke-width="0.25" stroke-miterlimit="10" d="M69.571,44.438c0,0.305-0.083,0.583-0.305,0.806
		c-0.224,0.222-0.502,0.305-0.807,0.305h-0.057c-0.306,0-0.584-0.083-0.809-0.305c-0.222-0.224-0.333-0.501-0.333-0.806V27.136
		c0-1.673-0.612-3.173-1.808-4.396c-1.223-1.224-2.699-1.811-4.423-1.811c-1.726,0-3.171,0.587-4.395,1.811s-1.81,2.724-1.81,4.396
		v17.302c0,0.305-0.138,0.583-0.362,0.806c-0.22,0.222-0.47,0.305-0.779,0.305h-0.082c-0.335,0-0.556-0.083-0.778-0.305
		c-0.226-0.224-0.365-0.501-0.365-0.806V27.136c0-2.365,0.864-4.396,2.531-6.066c1.699-1.641,3.671-2.502,6.038-2.502
		c2.335,0,4.395,0.861,6.065,2.502c1.668,1.669,2.475,3.701,2.475,6.066V44.438z"/>
	<path fill="#E9AC70" d="M36.299,44.3c0-0.332,0.083-0.587,0.306-0.806c0.25-0.251,0.501-0.335,0.834-0.335h7.316
		c0.334,0,0.612,0.084,0.781,0.335c0.223,0.219,0.36,0.475,0.36,0.806v0.053c0,0.306-0.137,0.585-0.36,0.809
		c-0.169,0.222-0.446,0.362-0.781,0.362H37.44c-0.333,0-0.584-0.141-0.834-0.362c-0.166-0.224-0.306-0.502-0.306-0.809V44.3z"/>
	<path fill="none" stroke="#E9AC70" stroke-width="0.25" stroke-miterlimit="10" d="M36.299,44.3c0-0.332,0.083-0.587,0.306-0.806
		c0.25-0.251,0.501-0.335,0.834-0.335h7.316c0.334,0,0.612,0.084,0.781,0.335c0.223,0.219,0.36,0.475,0.36,0.806v0.053
		c0,0.306-0.137,0.585-0.36,0.809c-0.169,0.222-0.446,0.362-0.781,0.362H37.44c-0.333,0-0.584-0.141-0.834-0.362
		c-0.166-0.224-0.306-0.502-0.306-0.809V44.3z"/>
	<path fill="#E9AC70" d="M76.025,44.3c0-0.332,0.083-0.587,0.306-0.807c0.223-0.252,0.501-0.334,0.806-0.334h4.366h2.618h4.341
		c0.331,0,0.582,0.083,0.834,0.334c0.221,0.219,0.306,0.475,0.306,0.807v0.053c0,0.306-0.084,0.584-0.306,0.809
		c-0.252,0.222-0.503,0.362-0.834,0.362h-5.761h-5.564c-0.305,0-0.583-0.141-0.806-0.362c-0.223-0.224-0.306-0.502-0.306-0.809V44.3
		z M78.362,37.373h3.141h5.344c0.222,0.806,0.5,1.584,0.833,2.362H86.79h-9.596l-0.418-0.111H76.72l-0.334-0.275
		c-0.251-0.17-0.334-0.475-0.334-0.809v-11.99l-0.026-0.307v-0.056l0.026-0.333v-6.229c0.057-0.277,0.141-0.502,0.334-0.699
		c0.168-0.223,0.446-0.305,0.725-0.361h0.026h0.057h11.212c0.332,0,0.61,0.138,0.832,0.361c0.224,0.25,0.364,0.501,0.364,0.778
		v0.083c0,0.169-0.055,0.334-0.113,0.477l-0.112,0.165l-0.139,0.141c-0.222,0.22-0.5,0.359-0.832,0.359H78.362v4.117h8.792
		c-0.252,0.751-0.475,1.53-0.641,2.311h-8.151V37.373z"/>
	<path fill="none" stroke="#E9AC70" stroke-width="0.25" stroke-miterlimit="10" d="M76.025,44.3c0-0.332,0.083-0.587,0.306-0.807
		c0.223-0.252,0.501-0.334,0.806-0.334h4.366h2.618h4.341c0.331,0,0.582,0.083,0.834,0.334c0.221,0.219,0.306,0.475,0.306,0.807
		v0.053c0,0.306-0.084,0.584-0.306,0.809c-0.252,0.222-0.503,0.362-0.834,0.362h-5.761h-5.564c-0.305,0-0.583-0.141-0.806-0.362
		c-0.223-0.224-0.306-0.502-0.306-0.809V44.3z M78.362,37.373h3.141h5.344c0.222,0.806,0.5,1.584,0.833,2.362H86.79h-9.596
		l-0.418-0.111H76.72l-0.334-0.275c-0.251-0.17-0.334-0.475-0.334-0.809v-11.99l-0.026-0.307v-0.056l0.026-0.333v-6.229
		c0.057-0.277,0.141-0.502,0.334-0.699c0.168-0.223,0.446-0.305,0.725-0.361h0.026h0.057h11.212c0.332,0,0.61,0.138,0.832,0.361
		c0.224,0.25,0.364,0.501,0.364,0.778v0.083c0,0.169-0.055,0.334-0.113,0.477l-0.112,0.165l-0.139,0.141
		c-0.222,0.22-0.5,0.359-0.832,0.359H78.362v4.117h8.792c-0.252,0.751-0.475,1.53-0.641,2.311h-8.151V37.373z"/>
	<path fill="#E9AC70" d="M122.038,43.133h4.449c0.334,0,0.612,0.109,0.835,0.331c0.223,0.224,0.362,0.505,0.362,0.862
		c0,0.308-0.14,0.585-0.362,0.807c-0.223,0.224-0.501,0.363-0.835,0.363h-5.979c-0.167,0-0.307,0-0.474-0.03
		C120.756,44.743,121.425,43.968,122.038,43.133 M115.359,35.955V20.376c0.892,0.946,1.67,1.891,2.312,2.916v12.663v2.976
		c-0.446,0.609-0.919,1.171-1.42,1.698c-0.224,0.221-0.473,0.444-0.696,0.636c-0.14-0.47-0.196-0.969-0.196-1.527V35.955z"/>
	<path fill="none" stroke="#E9AC70" stroke-width="0.25" stroke-miterlimit="10" d="M122.038,43.133h4.449
		c0.334,0,0.612,0.109,0.835,0.331c0.223,0.224,0.362,0.505,0.362,0.862c0,0.308-0.14,0.585-0.362,0.807
		c-0.223,0.224-0.501,0.363-0.835,0.363h-5.979c-0.167,0-0.307,0-0.474-0.03C120.756,44.743,121.425,43.968,122.038,43.133z
		 M115.359,35.955V20.376c0.892,0.946,1.67,1.891,2.312,2.916v12.663v2.976c-0.446,0.609-0.919,1.171-1.42,1.698
		c-0.224,0.221-0.473,0.444-0.696,0.636c-0.14-0.47-0.196-0.969-0.196-1.527V35.955z"/>
	<path fill="#E9AC70" d="M158.784,36.675c0.307,0,0.585,0.086,0.809,0.308c0.224,0.22,0.333,0.501,0.333,0.806v5.313
		c3.115-0.497,5.563-1.783,7.317-3.895c1.777-2.087,2.671-4.476,2.671-7.205c0-3.115-1.085-5.758-3.258-7.928
		c-2.223-2.171-4.839-3.255-7.927-3.255c-3.059,0-5.703,1.084-7.871,3.255c-2.171,2.17-3.256,4.813-3.256,7.928
		c0,2.729,0.862,5.176,2.671,7.232c1.752,2.084,4.2,3.37,7.343,3.867v-5.313c0-0.305,0.084-0.585,0.308-0.806
		c0.223-0.222,0.501-0.308,0.806-0.308H158.784z M158.729,18.456c3.754,0,6.929,1.363,9.568,4.004
		c2.672,2.616,3.979,5.788,3.979,9.542c0,3.393-1.169,6.371-3.448,8.958c-2.254,2.533-5.258,4.033-8.903,4.45v3.982
		c0,0.304-0.109,0.582-0.333,0.806c-0.224,0.192-0.502,0.332-0.809,0.332h-0.055c-0.305,0-0.583-0.14-0.806-0.332
		c-0.224-0.224-0.308-0.502-0.308-0.806V45.41c-3.729-0.417-6.702-1.917-8.985-4.45c-2.252-2.587-3.393-5.565-3.393-8.958
		c0-3.754,1.307-6.926,3.95-9.542C151.86,19.819,155.03,18.456,158.729,18.456"/>
	<path fill="none" stroke="#E9AC70" stroke-width="0.25" stroke-miterlimit="10" d="M158.784,36.675
		c0.307,0,0.585,0.086,0.809,0.308c0.224,0.22,0.333,0.501,0.333,0.806v5.313c3.115-0.497,5.563-1.783,7.317-3.895
		c1.777-2.087,2.671-4.476,2.671-7.205c0-3.115-1.085-5.758-3.258-7.928c-2.223-2.171-4.839-3.255-7.927-3.255
		c-3.059,0-5.703,1.084-7.871,3.255c-2.171,2.17-3.256,4.813-3.256,7.928c0,2.729,0.862,5.176,2.671,7.232
		c1.752,2.084,4.2,3.37,7.343,3.867v-5.313c0-0.305,0.084-0.585,0.308-0.806c0.223-0.222,0.501-0.308,0.806-0.308H158.784z
		 M158.729,18.456c3.754,0,6.929,1.363,9.568,4.004c2.672,2.616,3.979,5.788,3.979,9.542c0,3.393-1.169,6.371-3.448,8.958
		c-2.254,2.533-5.258,4.033-8.903,4.45v3.982c0,0.304-0.109,0.582-0.333,0.806c-0.224,0.192-0.502,0.332-0.809,0.332h-0.055
		c-0.305,0-0.583-0.14-0.806-0.332c-0.224-0.224-0.308-0.502-0.308-0.806V45.41c-3.729-0.417-6.702-1.917-8.985-4.45
		c-2.252-2.587-3.393-5.565-3.393-8.958c0-3.754,1.307-6.926,3.95-9.542C151.86,19.819,155.03,18.456,158.729,18.456z"/>
	<path fill="#E9AC70" d="M195.728,36.928c0,2.365-0.807,4.391-2.501,6.033c-1.671,1.672-3.702,2.533-6.066,2.533
		c-2.337,0-4.368-0.861-6.064-2.533c-1.669-1.642-2.477-3.667-2.477-6.033V19.651c0-0.335,0.083-0.64,0.307-0.861
		c0.223-0.193,0.501-0.333,0.806-0.333h0.057c0.304,0,0.585,0.14,0.807,0.333c0.251,0.222,0.36,0.526,0.36,0.861v17.276
		c0,1.724,0.613,3.172,1.837,4.391c1.197,1.226,2.671,1.813,4.368,1.813c1.724,0,3.173-0.587,4.396-1.813
		c1.225-1.219,1.863-2.667,1.863-4.391V19.651c0-0.335,0.085-0.64,0.307-0.861c0.251-0.193,0.5-0.333,0.832-0.333h0.03
		c0.333,0,0.583,0.14,0.836,0.333c0.221,0.222,0.304,0.526,0.304,0.861V36.928z"/>
	<path fill="none" stroke="#E9AC70" stroke-width="0.25" stroke-miterlimit="10" d="M195.728,36.928
		c0,2.365-0.807,4.391-2.501,6.033c-1.671,1.672-3.702,2.533-6.066,2.533c-2.337,0-4.368-0.861-6.064-2.533
		c-1.669-1.642-2.477-3.667-2.477-6.033V19.651c0-0.335,0.083-0.64,0.307-0.861c0.223-0.193,0.501-0.333,0.806-0.333h0.057
		c0.304,0,0.585,0.14,0.807,0.333c0.251,0.222,0.36,0.526,0.36,0.861v17.276c0,1.724,0.613,3.172,1.837,4.391
		c1.197,1.226,2.671,1.813,4.368,1.813c1.724,0,3.173-0.587,4.396-1.813c1.225-1.219,1.863-2.667,1.863-4.391V19.651
		c0-0.335,0.085-0.64,0.307-0.861c0.251-0.193,0.5-0.333,0.832-0.333h0.03c0.333,0,0.583,0.14,0.836,0.333
		c0.221,0.222,0.304,0.526,0.304,0.861V36.928z"/>
	<path fill="#E9AC70" d="M215.591,20.819c-3.06,0-5.703,1.084-7.901,3.255c-2.197,2.17-3.281,4.813-3.281,7.928
		c0,3.088,1.084,5.703,3.281,7.874c2.198,2.17,4.842,3.255,7.901,3.255c3.089,0,5.704-1.085,7.899-3.255
		c2.172-2.17,3.257-4.786,3.257-7.874c0-3.115-1.085-5.758-3.257-7.928C221.295,21.903,218.68,20.819,215.591,20.819
		 M215.591,18.456c3.727,0,6.897,1.363,9.57,4.004c2.615,2.616,3.922,5.788,3.922,9.542c0,3.702-1.307,6.871-3.922,9.517
		c-2.673,2.667-5.844,3.976-9.57,3.976c-3.754,0-6.928-1.31-9.542-3.976c-2.671-2.646-3.979-5.815-3.979-9.517
		c0-3.754,1.309-6.926,3.979-9.542C208.663,19.819,211.837,18.456,215.591,18.456"/>
	<path fill="none" stroke="#E9AC70" stroke-width="0.25" stroke-miterlimit="10" d="M215.591,20.819
		c-3.06,0-5.703,1.084-7.901,3.255c-2.197,2.17-3.281,4.813-3.281,7.928c0,3.088,1.084,5.703,3.281,7.874
		c2.198,2.17,4.842,3.255,7.901,3.255c3.089,0,5.704-1.085,7.899-3.255c2.172-2.17,3.257-4.786,3.257-7.874
		c0-3.115-1.085-5.758-3.257-7.928C221.295,21.903,218.68,20.819,215.591,20.819z M215.591,18.456c3.727,0,6.897,1.363,9.57,4.004
		c2.615,2.616,3.922,5.788,3.922,9.542c0,3.702-1.307,6.871-3.922,9.517c-2.673,2.667-5.844,3.976-9.57,3.976
		c-3.754,0-6.928-1.31-9.542-3.976c-2.671-2.646-3.979-5.815-3.979-9.517c0-3.754,1.309-6.926,3.979-9.542
		C208.663,19.819,211.837,18.456,215.591,18.456z"/>
	<path fill="#E9AC70" d="M250.416,40.877c0-1.641-0.58-3.032-1.721-4.171c-1.087-1.085-2.31-1.617-3.812-1.728h-6.648v9.346
		c0,0.363-0.14,0.586-0.308,0.808c-0.221,0.224-0.5,0.363-0.862,0.363h-0.055c-0.249,0-0.528-0.139-0.753-0.363
		c-0.248-0.222-0.359-0.499-0.359-0.808V24.658c0-1.724,0.584-3.171,1.809-4.337c1.225-1.224,2.67-1.865,4.396-1.865h2.391
		c2.308,0,4.259,0.837,5.843,2.449c1.614,1.585,2.392,3.531,2.392,5.838c0,2.283-0.777,4.229-2.392,5.79
		c-0.336,0.331-0.807,0.75-1.5,1.277c0.721,0.557,1.224,0.951,1.5,1.224c1.614,1.642,2.392,3.592,2.392,5.843v3.448
		c0,0.309-0.082,0.586-0.304,0.808c-0.225,0.224-0.504,0.363-0.838,0.363h-0.027c-0.332,0-0.557-0.139-0.832-0.363
		c-0.226-0.222-0.311-0.499-0.311-0.808V40.877z M244.493,32.645c1.613,0,3.034-0.587,4.202-1.727
		c1.141-1.17,1.721-2.534,1.721-4.175c0-1.614-0.58-3.03-1.721-4.201c-1.168-1.138-2.589-1.722-4.202-1.722h-2.143
		c-1.223,0-2.195,0.36-2.976,1.085c-0.583,0.584-0.946,1.279-1.085,2.031c-0.055,0.222-0.055,0.499-0.055,0.917v7.792H244.493z"/>
	<path fill="none" stroke="#E9AC70" stroke-width="0.25" stroke-miterlimit="10" d="M250.416,40.877c0-1.641-0.58-3.032-1.721-4.171
		c-1.087-1.085-2.31-1.617-3.812-1.728h-6.648v9.346c0,0.363-0.14,0.586-0.308,0.808c-0.221,0.224-0.5,0.363-0.862,0.363h-0.055
		c-0.249,0-0.528-0.139-0.753-0.363c-0.248-0.222-0.359-0.499-0.359-0.808V24.658c0-1.724,0.584-3.171,1.809-4.337
		c1.225-1.224,2.67-1.865,4.396-1.865h2.391c2.308,0,4.259,0.837,5.843,2.449c1.614,1.585,2.392,3.531,2.392,5.838
		c0,2.283-0.777,4.229-2.392,5.79c-0.336,0.331-0.807,0.75-1.5,1.277c0.721,0.557,1.224,0.951,1.5,1.224
		c1.614,1.642,2.392,3.592,2.392,5.843v3.448c0,0.309-0.082,0.586-0.304,0.808c-0.225,0.224-0.504,0.363-0.838,0.363h-0.027
		c-0.332,0-0.557-0.139-0.832-0.363c-0.226-0.222-0.311-0.499-0.311-0.808V40.877z M244.493,32.645c1.613,0,3.034-0.587,4.202-1.727
		c1.141-1.17,1.721-2.534,1.721-4.175c0-1.614-0.58-3.03-1.721-4.201c-1.168-1.138-2.589-1.722-4.202-1.722h-2.143
		c-1.223,0-2.195,0.36-2.976,1.085c-0.583,0.584-0.946,1.279-1.085,2.031c-0.055,0.222-0.055,0.499-0.055,0.917v7.792H244.493z"/>
	<path fill="#E9AC70" d="M137.004,18.456c0.25,0,0.584,0.141,0.749,0.333c0.278,0.222,0.362,0.503,0.362,0.862v19.195
		c0,0.305-0.139,0.584-0.362,0.808c-0.223,0.222-0.499,0.303-0.749,0.303h-0.115c-0.246,0-0.526-0.081-0.748-0.303
		c-0.221-0.224-0.361-0.503-0.361-0.808V19.651c0-0.359,0.141-0.641,0.361-0.862c0.222-0.192,0.502-0.333,0.748-0.333H137.004z"/>
	<path fill="none" stroke="#E9AC70" stroke-width="0.25" stroke-miterlimit="10" d="M137.004,18.456c0.25,0,0.584,0.141,0.749,0.333
		c0.278,0.222,0.362,0.503,0.362,0.862v19.195c0,0.305-0.139,0.584-0.362,0.808c-0.223,0.222-0.499,0.303-0.749,0.303h-0.115
		c-0.246,0-0.526-0.081-0.748-0.303c-0.221-0.224-0.361-0.503-0.361-0.808V19.651c0-0.359,0.141-0.641,0.361-0.862
		c0.222-0.192,0.502-0.333,0.748-0.333H137.004z"/>
	<path fill="#E9AC70" d="M132.136,44.186c0-0.333,0.111-0.583,0.333-0.833c0.221-0.22,0.5-0.307,0.806-0.307h7.345
		c0.307,0,0.587,0.087,0.75,0.307c0.252,0.25,0.391,0.501,0.391,0.833v0.03c0,0.333-0.139,0.612-0.391,0.833
		c-0.222,0.224-0.472,0.36-0.75,0.36h-7.345c-0.306,0-0.585-0.137-0.806-0.36c-0.222-0.222-0.333-0.501-0.333-0.833V44.186z"/>
	<path fill="none" stroke="#E9AC70" stroke-width="0.25" stroke-miterlimit="10" d="M132.136,44.186
		c0-0.333,0.111-0.583,0.333-0.833c0.221-0.22,0.5-0.307,0.806-0.307h7.345c0.307,0,0.587,0.087,0.75,0.307
		c0.252,0.25,0.391,0.501,0.391,0.833v0.03c0,0.333-0.139,0.612-0.391,0.833c-0.222,0.224-0.472,0.36-0.75,0.36h-7.345
		c-0.306,0-0.585-0.137-0.806-0.36c-0.222-0.222-0.333-0.501-0.333-0.833V44.186z"/>
	<path fill="#E9AC70" d="M80.837,66.739c-1.362,0-2.559,0.504-3.505,1.449c-1.002,1-1.446,2.17-1.446,3.531
		c0,1.725,0.723,2.98,2.281,3.898c0.583,0.305,2.168,0.861,4.786,1.637c1.947,0.584,3.366,1.254,4.2,2.029
		c1.224,1.09,1.864,2.703,1.864,4.791c0,2.057-0.725,3.809-2.171,5.199c-1.446,1.477-3.172,2.199-5.202,2.199h-7.148
		c-0.334,0-0.557-0.141-0.78-0.391c-0.222-0.223-0.362-0.473-0.362-0.752V90.19c0-0.33,0.14-0.582,0.362-0.803
		c0.224-0.227,0.446-0.334,0.78-0.334h7.315c1.363,0,2.561-0.502,3.535-1.445c0.974-1.004,1.445-2.174,1.445-3.533
		c0-1.672-0.752-2.979-2.309-3.896c-0.612-0.361-2.2-0.947-4.729-1.754c-2.003-0.639-3.423-1.363-4.257-2.143
		c-1.224-1.082-1.838-2.611-1.838-4.563c0-2.029,0.723-3.809,2.143-5.199c1.446-1.447,3.171-2.17,5.259-2.17h5.008
		c0.331,0,0.612,0.137,0.833,0.363c0.222,0.166,0.305,0.442,0.305,0.748v0.141c0,0.334-0.083,0.582-0.305,0.807
		c-0.222,0.25-0.502,0.33-0.833,0.33H80.837z"/>
	<path fill="none" stroke="#E9AC70" stroke-width="0.25" stroke-miterlimit="10" d="M80.837,66.739
		c-1.362,0-2.559,0.504-3.505,1.449c-1.002,1-1.446,2.17-1.446,3.531c0,1.725,0.723,2.98,2.281,3.898
		c0.583,0.305,2.168,0.861,4.786,1.637c1.947,0.584,3.366,1.254,4.2,2.029c1.224,1.09,1.864,2.703,1.864,4.791
		c0,2.057-0.725,3.809-2.171,5.199c-1.446,1.477-3.172,2.199-5.202,2.199h-7.148c-0.334,0-0.557-0.141-0.78-0.391
		c-0.222-0.223-0.362-0.473-0.362-0.752V90.19c0-0.33,0.14-0.582,0.362-0.803c0.224-0.227,0.446-0.334,0.78-0.334h7.315
		c1.363,0,2.561-0.502,3.535-1.445c0.974-1.004,1.445-2.174,1.445-3.533c0-1.672-0.752-2.979-2.309-3.896
		c-0.612-0.361-2.2-0.947-4.729-1.754c-2.003-0.639-3.423-1.363-4.257-2.143c-1.224-1.082-1.838-2.611-1.838-4.563
		c0-2.029,0.723-3.809,2.143-5.199c1.446-1.447,3.171-2.17,5.259-2.17h5.008c0.331,0,0.612,0.137,0.833,0.363
		c0.222,0.166,0.305,0.442,0.305,0.748v0.141c0,0.334-0.083,0.582-0.305,0.807c-0.222,0.25-0.502,0.33-0.833,0.33H80.837z"/>
	<path fill="#E9AC70" d="M110.298,65.657c0,0.307-0.085,0.582-0.363,0.809c-0.166,0.221-0.443,0.334-0.779,0.334h-5.701v23.531
		c0,0.307-0.085,0.586-0.307,0.752c-0.222,0.25-0.501,0.391-0.807,0.391h-0.055c-0.304,0-0.584-0.141-0.808-0.391
		c-0.222-0.166-0.333-0.445-0.333-0.752V66.8h-5.703c-0.308,0-0.587-0.113-0.809-0.334c-0.222-0.227-0.305-0.502-0.305-0.809v-0.055
		c0-0.307,0.083-0.584,0.305-0.809c0.222-0.223,0.501-0.307,0.809-0.307h13.712c0.336,0,0.613,0.084,0.779,0.307
		c0.278,0.225,0.363,0.502,0.363,0.809V65.657z"/>
	<path fill="none" stroke="#E9AC70" stroke-width="0.25" stroke-miterlimit="10" d="M110.298,65.657
		c0,0.307-0.085,0.582-0.363,0.809c-0.166,0.221-0.443,0.334-0.779,0.334h-5.701v23.531c0,0.307-0.085,0.586-0.307,0.752
		c-0.222,0.25-0.501,0.391-0.807,0.391h-0.055c-0.304,0-0.584-0.141-0.808-0.391c-0.222-0.166-0.333-0.445-0.333-0.752V66.8h-5.703
		c-0.308,0-0.587-0.113-0.809-0.334c-0.222-0.227-0.305-0.502-0.305-0.809v-0.055c0-0.307,0.083-0.584,0.305-0.809
		c0.222-0.223,0.501-0.307,0.809-0.307h13.712c0.336,0,0.613,0.084,0.779,0.307c0.278,0.225,0.363,0.502,0.363,0.809V65.657z"/>
	<path fill="#E9AC70" d="M131.132,73.39v-0.361c0-1.727-0.584-3.197-1.807-4.42c-1.225-1.225-2.671-1.809-4.397-1.809
		c-1.723,0-3.226,0.584-4.45,1.809c-1.167,1.223-1.808,2.693-1.808,4.42v0.361H131.132z M133.471,84.909
		c0,0.305-0.112,0.582-0.361,0.805c-0.167,0.221-0.445,0.361-0.754,0.361h-0.108c-0.252,0-0.529-0.141-0.753-0.361
		c-0.222-0.223-0.362-0.5-0.362-0.805v-9.211H118.67v9.211c0,0.305-0.081,0.582-0.307,0.805c-0.222,0.221-0.501,0.361-0.833,0.361
		h-0.028c-0.333,0-0.583-0.141-0.807-0.361c-0.25-0.223-0.333-0.5-0.333-0.805V73.028c0-2.391,0.807-4.396,2.503-6.064
		c1.669-1.666,3.699-2.475,6.063-2.475c2.339,0,4.397,0.809,6.009,2.475c1.668,1.668,2.533,3.674,2.533,6.064V84.909z"/>
	<path fill="none" stroke="#E9AC70" stroke-width="0.25" stroke-miterlimit="10" d="M131.132,73.39v-0.361
		c0-1.727-0.584-3.197-1.807-4.42c-1.225-1.225-2.671-1.809-4.397-1.809c-1.723,0-3.226,0.584-4.45,1.809
		c-1.167,1.223-1.808,2.693-1.808,4.42v0.361H131.132z M133.471,84.909c0,0.305-0.112,0.582-0.361,0.805
		c-0.167,0.221-0.445,0.361-0.754,0.361h-0.108c-0.252,0-0.529-0.141-0.753-0.361c-0.222-0.223-0.362-0.5-0.362-0.805v-9.211H118.67
		v9.211c0,0.305-0.081,0.582-0.307,0.805c-0.222,0.221-0.501,0.361-0.833,0.361h-0.028c-0.333,0-0.583-0.141-0.807-0.361
		c-0.25-0.223-0.333-0.5-0.333-0.805V73.028c0-2.391,0.807-4.396,2.503-6.064c1.669-1.666,3.699-2.475,6.063-2.475
		c2.339,0,4.397,0.809,6.009,2.475c1.668,1.668,2.533,3.674,2.533,6.064V84.909z"/>
	<path fill="#E9AC70" d="M148.021,66.739c-1.363,0-2.533,0.504-3.479,1.449c-1.001,1-1.476,2.17-1.476,3.531
		c0,1.725,0.723,2.98,2.282,3.898c0.585,0.305,2.171,0.861,4.786,1.637c1.946,0.584,3.361,1.254,4.226,2.029
		c1.225,1.09,1.837,2.703,1.837,4.791c0,2.057-0.723,3.809-2.169,5.199c-1.447,1.477-3.171,2.199-5.203,2.199h-7.147
		c-0.31,0-0.585-0.141-0.781-0.391c-0.224-0.223-0.36-0.473-0.36-0.752V90.19c0-0.33,0.137-0.582,0.36-0.803
		c0.196-0.227,0.472-0.334,0.781-0.334h7.343c1.336,0,2.53-0.502,3.531-1.445c0.944-1.004,1.447-2.174,1.447-3.533
		c0-1.672-0.777-2.979-2.308-3.896c-0.642-0.361-2.225-0.947-4.759-1.754c-2.002-0.639-3.392-1.363-4.255-2.143
		c-1.223-1.082-1.808-2.611-1.808-4.563c0-2.029,0.724-3.809,2.114-5.199c1.445-1.447,3.17-2.17,5.258-2.17h5.033
		c0.309,0,0.587,0.137,0.806,0.363c0.226,0.166,0.309,0.442,0.309,0.748v0.141c0,0.334-0.083,0.582-0.309,0.807
		c-0.219,0.25-0.497,0.33-0.806,0.33H148.021z"/>
	<path fill="none" stroke="#E9AC70" stroke-width="0.25" stroke-miterlimit="10" d="M148.021,66.739
		c-1.363,0-2.533,0.504-3.479,1.449c-1.001,1-1.476,2.17-1.476,3.531c0,1.725,0.723,2.98,2.282,3.898
		c0.585,0.305,2.171,0.861,4.786,1.637c1.946,0.584,3.361,1.254,4.226,2.029c1.225,1.09,1.837,2.703,1.837,4.791
		c0,2.057-0.723,3.809-2.169,5.199c-1.447,1.477-3.171,2.199-5.203,2.199h-7.147c-0.31,0-0.585-0.141-0.781-0.391
		c-0.224-0.223-0.36-0.473-0.36-0.752V90.19c0-0.33,0.137-0.582,0.36-0.803c0.196-0.227,0.472-0.334,0.781-0.334h7.343
		c1.336,0,2.53-0.502,3.531-1.445c0.944-1.004,1.447-2.174,1.447-3.533c0-1.672-0.777-2.979-2.308-3.896
		c-0.642-0.361-2.225-0.947-4.759-1.754c-2.002-0.639-3.392-1.363-4.255-2.143c-1.223-1.082-1.808-2.611-1.808-4.563
		c0-2.029,0.724-3.809,2.114-5.199c1.445-1.447,3.17-2.17,5.258-2.17h5.033c0.309,0,0.587,0.137,0.806,0.363
		c0.226,0.166,0.309,0.442,0.309,0.748v0.141c0,0.334-0.083,0.582-0.309,0.807c-0.219,0.25-0.497,0.33-0.806,0.33H148.021z"/>
	<path fill="#E9AC70" d="M163.988,64.487c0.332,0,0.612,0.084,0.834,0.307c0.225,0.225,0.363,0.502,0.363,0.811v11.178h12.57V65.604
		c0-0.309,0.141-0.586,0.362-0.811c0.224-0.223,0.447-0.307,0.78-0.307h0.083c0.278,0,0.558,0.084,0.78,0.307
		c0.221,0.225,0.361,0.502,0.361,0.811v24.727c0,0.281-0.141,0.529-0.361,0.752c-0.223,0.25-0.502,0.391-0.78,0.391h-0.083
		c-0.333,0-0.557-0.141-0.78-0.391c-0.222-0.223-0.362-0.471-0.362-0.752V79.095h-12.57v11.236c0,0.281-0.139,0.529-0.363,0.752
		c-0.222,0.25-0.502,0.391-0.834,0.391h-0.027c-0.336,0-0.587-0.141-0.837-0.391c-0.221-0.223-0.306-0.471-0.306-0.752V65.604
		c0-0.309,0.085-0.586,0.306-0.811c0.25-0.223,0.501-0.307,0.837-0.307H163.988z"/>
	<path fill="none" stroke="#E9AC70" stroke-width="0.25" stroke-miterlimit="10" d="M163.988,64.487
		c0.332,0,0.612,0.084,0.834,0.307c0.225,0.225,0.363,0.502,0.363,0.811v11.178h12.57V65.604c0-0.309,0.141-0.586,0.362-0.811
		c0.224-0.223,0.447-0.307,0.78-0.307h0.083c0.278,0,0.558,0.084,0.78,0.307c0.221,0.225,0.361,0.502,0.361,0.811v24.727
		c0,0.281-0.141,0.529-0.361,0.752c-0.223,0.25-0.502,0.391-0.78,0.391h-0.083c-0.333,0-0.557-0.141-0.78-0.391
		c-0.222-0.223-0.362-0.471-0.362-0.752V79.095h-12.57v11.236c0,0.281-0.139,0.529-0.363,0.752c-0.222,0.25-0.502,0.391-0.834,0.391
		h-0.027c-0.336,0-0.587-0.141-0.837-0.391c-0.221-0.223-0.306-0.471-0.306-0.752V65.604c0-0.309,0.085-0.586,0.306-0.811
		c0.25-0.223,0.501-0.307,0.837-0.307H163.988z"/>
	<path fill="#E9AC70" d="M116.362,90.251c0-0.281,0.083-0.613,0.333-0.779c0.223-0.225,0.473-0.363,0.808-0.363h14.855
		c0.307,0,0.585,0.139,0.752,0.363c0.249,0.223,0.358,0.498,0.358,0.779v0.08c0,0.281-0.109,0.529-0.358,0.752
		c-0.167,0.25-0.445,0.391-0.752,0.391h-14.855c-0.335,0-0.585-0.141-0.808-0.391c-0.25-0.166-0.333-0.471-0.333-0.752V90.251z"/>
	<path fill="none" stroke="#E9AC70" stroke-width="0.25" stroke-miterlimit="10" d="M116.362,90.251
		c0-0.281,0.083-0.613,0.333-0.779c0.223-0.225,0.473-0.363,0.808-0.363h14.855c0.307,0,0.585,0.139,0.752,0.363
		c0.249,0.223,0.358,0.498,0.358,0.779v0.08c0,0.281-0.109,0.529-0.358,0.752c-0.167,0.25-0.445,0.391-0.752,0.391h-14.855
		c-0.335,0-0.585-0.141-0.808-0.391c-0.25-0.166-0.333-0.471-0.333-0.752V90.251z"/>
</g>
</svg>
