<svg id="SvgjsSvg1000" xmlns="http://www.w3.org/2000/svg" version="1.1" xmlns:xlink="http://www.w3.org/1999/xlink" xmlns:svgjs="http://svgjs.com/svgjs" width="21" height="26" viewBox="0 0 21 26"><title>Forma 1</title><desc>Created with Avocode.</desc><defs id="SvgjsDefs1001"></defs><path id="SvgjsPath1007" d="M1508.43 2177.2C1506.3 2178.43 1504.78 2180.41 1504.14 2182.7799999999997C1503.51 2185.1499999999996 1503.8300000000002 2187.6299999999997 1505.0600000000002 2189.7599999999998C1506.7000000000003 2192.6 1509.7500000000002 2194.3599999999997 1513.0300000000002 2194.3599999999997C1514.0700000000002 2194.3599999999997 1515.0900000000001 2194.18 1516.0700000000002 2193.8399999999997L1520.2000000000003 2200.9999999999995L1523.1500000000003 2199.2999999999997L1519.0200000000002 2192.14C1520.4100000000003 2190.94 1521.4200000000003 2189.3599999999997 1521.9100000000003 2187.54C1522.5400000000004 2185.17 1522.2200000000003 2182.69 1520.9900000000002 2180.56C1519.3500000000001 2177.73 1516.3000000000002 2175.96 1513.0200000000002 2175.96C1511.4100000000003 2175.96 1509.8200000000002 2176.39 1508.4300000000003 2177.2ZM1518.04 2182.27C1518.81 2183.61 1519.02 2185.17 1518.62 2186.66C1518.2199999999998 2188.1499999999996 1517.26 2189.3999999999996 1515.9199999999998 2190.18C1515.0399999999997 2190.68 1514.0399999999997 2190.95 1513.0299999999997 2190.95C1510.9699999999998 2190.95 1509.0399999999997 2189.8399999999997 1508.0099999999998 2188.06C1507.2399999999998 2186.72 1507.0299999999997 2185.16 1507.4299999999998 2183.66C1507.83 2182.17 1508.7899999999997 2180.92 1510.1299999999999 2180.1499999999996C1511.01 2179.6399999999994 1512.01 2179.3699999999994 1513.02 2179.3699999999994C1515.08 2179.3699999999994 1517.01 2180.4799999999996 1518.04 2182.2699999999995Z " fill="#240604" fill-opacity="1" transform="matrix(1,0,0,1,-1503,-2175)"></path></svg>